<?xml version="1.0" standalone="no"?>
<!DOCTYPE svg PUBLIC "-//W3C//DTD SVG 20010904//EN"
        "http://www.w3.org/TR/2001/REC-SVG-20010904/DTD/svg10.dtd">
<svg version="1.0" xmlns="http://www.w3.org/2000/svg"
     width="1024.000000pt" height="1024.000000pt" viewBox="0 0 1024.000000 1024.000000"
     preserveAspectRatio="xMidYMid meet">

    <g transform="translate(0.000000,1024.000000) scale(0.100000,-0.100000)"
       fill="#000000" stroke="none">
        <path d="M7440 7514 c-304 -38 -735 -173 -1200 -377 -436 -191 -1080 -517
-1320 -669 -52 -33 -69 -34 175 13 217 41 293 63 614 183 634 238 1011 333
1275 324 94 -3 120 -8 168 -30 73 -34 98 -72 98 -149 0 -75 -42 -159 -154
-306 l-85 -112 57 25 c316 139 728 568 813 847 35 113 8 180 -89 225 -48 22
-70 25 -186 27 -72 2 -147 1 -166 -1z"/>
        <path d="M3101 6164 c-148 -32 -263 -127 -301 -250 -19 -64 -20 -91 -20 -734
0 -651 1 -670 21 -736 18 -59 30 -77 88 -134 101 -99 150 -115 356 -115 145 1
166 3 220 24 72 29 159 112 195 186 l25 50 3 680 c3 711 2 746 -40 829 -30 60
-111 134 -182 167 -105 49 -237 61 -365 33z m213 -324 c14 -5 35 -24 46 -42
20 -32 20 -47 18 -636 l-3 -604 -34 -30 c-32 -29 -36 -30 -113 -26 -73 3 -82
6 -104 31 l-24 28 0 604 c0 410 3 612 11 628 17 37 58 56 121 57 31 0 68 -4
82 -10z"/>
        <path d="M2038 6151 c-126 -41 -218 -123 -259 -233 l-23 -63 2 -685 3 -685 28
-60 c51 -111 171 -201 300 -225 62 -12 581 -14 581 -2 0 4 -44 72 -98 152
l-97 145 -167 5 -168 5 -32 33 -33 32 -3 593 c-2 418 1 600 9 619 24 59 37 63
217 68 l165 5 90 130 c49 72 95 142 103 158 l15 27 -288 -1 c-250 0 -295 -2
-345 -18z"/>
        <path d="M4147 6149 c-118 -40 -197 -111 -233 -210 -23 -62 -21 -401 3 -473
24 -74 87 -131 256 -230 82 -48 164 -101 183 -118 62 -55 64 -63 64 -318 0
-139 -4 -239 -10 -250 -21 -39 -50 -45 -235 -50 l-180 -5 -97 -145 c-54 -79
-98 -148 -98 -152 0 -13 572 -10 632 3 74 16 163 63 210 111 23 23 55 71 72
107 l31 66 0 330 c0 324 0 331 -23 381 -32 71 -75 109 -237 208 -245 151 -265
175 -265 312 0 130 -4 128 219 134 l176 5 87 130 c48 72 94 142 103 158 l16
27 -308 0 c-282 -1 -313 -2 -366 -21z"/>
        <path d="M4950 5180 l0 -990 160 0 160 0 0 422 c0 232 2 419 4 417 5 -5 119
-376 188 -612 30 -104 54 -173 59 -165 4 7 53 164 109 348 56 184 107 353 115
375 12 35 14 -12 14 -372 l1 -413 160 0 160 0 0 990 0 990 -140 0 c-77 0 -140
-2 -140 -4 0 -3 -47 -166 -104 -363 -57 -197 -114 -394 -126 -438 -12 -44 -28
-102 -37 -130 l-16 -50 -32 120 c-18 66 -67 237 -109 380 -43 143 -92 310
-110 370 l-32 110 -142 3 -142 3 0 -991z"/>
        <path d="M6310 5180 l0 -990 160 0 160 0 0 990 0 990 -160 0 -160 0 0 -990z"/>
        <path d="M7145 6152 c-154 -53 -256 -169 -285 -322 -14 -75 -13 -1243 1 -1312
15 -73 64 -160 115 -207 52 -49 141 -95 212 -110 73 -15 1140 -15 1214 0 123
26 220 97 275 201 l28 53 0 360 c0 350 -1 361 -22 400 -32 59 -85 106 -208
180 -249 152 -284 192 -285 326 0 60 17 106 44 122 13 7 85 14 190 17 l170 5
98 145 c54 80 98 148 98 153 0 4 -132 7 -292 7 -309 0 -350 -5 -443 -50 -61
-30 -139 -117 -162 -182 -15 -44 -18 -85 -18 -243 0 -188 0 -191 28 -247 34
-70 69 -100 252 -213 77 -48 155 -101 174 -118 57 -54 61 -74 61 -307 0 -313
2 -310 -252 -310 l-163 0 -90 -131 c-49 -72 -95 -135 -100 -139 -7 -6 -44 40
-104 130 l-94 140 -154 0 c-175 0 -211 9 -243 62 -20 32 -20 45 -18 630 l3
598 28 27 c27 28 27 28 201 33 l174 5 95 135 c52 74 99 145 106 158 l12 22
-298 0 c-256 -1 -305 -3 -348 -18z"/>
        <path d="M5345 3889 c-66 -4 -212 -15 -325 -25 l-205 -18 -190 -94 c-358 -178
-660 -297 -923 -364 -112 -28 -143 -32 -262 -33 -117 0 -139 3 -169 20 -54 32
-76 69 -76 128 0 65 30 128 125 259 38 53 70 100 70 103 0 3 -41 5 -92 5 l-91
0 -91 -74 c-127 -103 -330 -314 -426 -443 -84 -113 -183 -297 -200 -373 -24
-111 3 -184 85 -231 181 -102 568 -38 1139 190 334 134 893 415 1338 674 160
93 414 252 438 274 12 11 12 13 -5 12 -11 -1 -74 -5 -140 -10z"/>
    </g>
</svg>
